<svg width="40" height="40" viewBox="0 0 40 40" fill="none" xmlns="http://www.w3.org/2000/svg">
    <rect width="40" height="40"/>
    <path d="M37.7421 4.19714C37.5701 3.77238 37.3102 3.373 36.9686 3.03149C36.6271 2.68991 36.2277 2.42996 35.8029 2.25798C35.378 2.08571 34.9279 2 34.4783 2C34.0287 2 33.5786 2.08571 33.1537 2.25798C32.729 2.42996 32.3296 2.68991 31.9881 3.03149L16.4553 18.5644L10.6447 12.7538C10.1863 12.2954 9.44301 12.2954 8.98458 12.7538L5.6642 16.0741L2.34383 19.3944C1.88539 19.8529 1.88539 20.5961 2.34383 21.0546C2.80227 21.513 3.54554 21.513 4.00398 21.0546L6.49424 18.5643L8.1544 20.2245L5.66413 22.7147C5.2057 23.1732 5.2057 23.9165 5.66413 24.3749C6.12257 24.8333 6.86585 24.8333 7.32429 24.3749L9.81455 21.8846L11.4747 23.5448L8.98444 26.0351C8.526 26.4935 8.526 27.2368 8.98444 27.6952C9.44288 28.1537 10.1862 28.1537 10.6446 27.6952L13.1349 25.205L13.9649 26.035L14.795 26.8651L12.3047 29.3554C11.8463 29.8138 11.8463 30.5571 12.3047 31.0155C12.7632 31.474 13.5065 31.474 13.9649 31.0155L16.4552 28.5253L18.1153 30.1854L15.6251 32.6757C15.1666 33.1341 15.1666 33.8774 15.6251 34.3359C16.0835 34.7943 16.8268 34.7943 17.2852 34.3359L19.7755 31.8456L21.4356 33.5057L18.9454 35.996C18.4869 36.4545 18.4869 37.1977 18.9454 37.6562C19.4038 38.1146 20.1471 38.1146 20.6055 37.6562L23.9258 34.3358L27.2462 31.0155C27.4648 30.7969 27.59 30.4945 27.59 30.1854C27.59 29.8762 27.4648 29.5739 27.2462 29.3553L21.4356 23.5447L36.9685 8.01203C37.3102 7.6706 37.57 7.27115 37.742 6.84639C37.9143 6.42142 38 5.97134 38 5.52176C38 5.07219 37.9144 4.62204 37.7421 4.19714V4.19714ZM24.7561 30.1856L23.0959 31.8457L20.6058 29.3556L20.6056 29.3554L20.6056 29.3554L17.2854 26.0352L17.2853 26.0351L17.2853 26.0351L13.9651 22.7149H13.965C13.965 22.7148 13.965 22.7148 13.965 22.7148L10.6447 19.3946L8.15439 16.9042L9.81454 15.2441L24.756 30.1856H24.7561ZM19.7755 21.8847L18.1154 20.2245L19.7755 18.5644L21.4357 20.2245L19.7755 21.8847ZM35.5663 5.9641C35.5091 6.10466 35.4251 6.23488 35.3084 6.35188L23.0959 18.5644L21.4357 16.9042L33.6483 4.69165C33.7653 4.57486 33.8955 4.49084 34.036 4.43367C34.1763 4.37679 34.327 4.34782 34.4783 4.34782C34.6295 4.34782 34.7958 4.37679 34.9361 4.43367C35.0765 4.49091 35.1826 4.57479 35.3392 4.69151V4.69158C35.4174 4.80858 35.5246 4.9388 35.5817 5.07929C35.6386 5.21963 35.6599 5.37031 35.6599 5.52163C35.6599 5.67294 35.6232 5.82376 35.5663 5.9641H35.5663Z" fill="#7669D5"/>
</svg>
